<svg width="375" height="111" viewBox="0 0 375 111" fill="none" xmlns="http://www.w3.org/2000/svg">
<path d="M36.2454 5.04852L79.6793 80.2781L77.8262 83.4877L62.6179 109.829C62.6179 109.829 61.8762 111 60.7014 111C59.5266 111 58.5624 109.829 58.5624 109.829L0.43291 9.1461C0.43291 9.1461 -0.52472 7.80298 0.408595 6.21925C1.34191 4.63553 2.75012 5.04852 2.75012 5.04852H33.1892H36.2454Z" fill="#03346C"/>
<path d="M88.0497 34.8683L90.8634 61.026L121.375 8.56072C121.375 8.56072 122.135 7.46619 121.58 6.21925C121.024 4.97232 119.238 5.04852 119.238 5.04852H59.2762L79.6793 20.3702L73.5795 30.9353C73.5795 30.9353 72.4056 32.9623 72.9699 34.091C73.5343 35.2197 75.7916 34.8683 75.7916 34.8683H88.0497Z" fill="#03346C"/>
<path d="M132.542 111V4.63366H157.569V111H132.542ZM174.029 111V90.5088L228.933 25.1248H174.029V4.63366H257.714V25.1248L202.81 90.5088H257.714V111H174.029ZM346.881 111L339.842 91.1345H298.078L291.039 111H265.855L304.648 4.63366H334.68L373.629 111H346.881ZM315.754 41.2362L304.96 71.8947H332.96L322.167 41.2362L319.038 29.1918L315.754 41.2362Z" fill="#03346C"/>
</svg>
