<svg width="122" height="106" viewBox="0 0 122 106" fill="none" xmlns="http://www.w3.org/2000/svg">
<path d="M36.2454 0.0485246L79.6793 75.2781L77.8262 78.4877L62.6179 104.829C62.6179 104.829 61.8762 106 60.7014 106C59.5266 106 58.5624 104.829 58.5624 104.829L0.43291 4.1461C0.43291 4.1461 -0.52472 2.80298 0.408595 1.21925C1.34191 -0.36447 2.75012 0.0485246 2.75012 0.0485246H33.1892H36.2454Z" fill="#FFFFFF"></path>
<path d="M88.0497 29.8683L90.8634 56.026L121.375 3.56072C121.375 3.56072 122.135 2.46619 121.58 1.21925C121.024 -0.0276808 119.238 0.0485246 119.238 0.0485246H59.2762L79.6793 15.3702L73.5795 25.9353C73.5795 25.9353 72.4056 27.9623 72.9699 29.091C73.5343 30.2197 75.7916 29.8683 75.7916 29.8683H88.0497Z" fill="#FFFFFF"></path>
</svg>